<?xml version="1.0" encoding="UTF-8"?>
<svg xmlns="http://www.w3.org/2000/svg" id="Livello_1" viewBox="0 0 971.01 453.38">
  <path d="M400.34,358.9c-4.7,1.2-5.5,8.3-1.2,10.4,3,1.5,3.9,1.4,6.5-.4,5-3.5,.8-11.5-5.3-10Z"></path>
  <polygon points="361.84 78.5 361.84 189 361.84 299.5 386.84 299.5 411.84 299.5 411.84 189 411.84 78.5 386.84 78.5 361.84 78.5"></polygon>
  <polygon points="397.84 381.5 397.84 407 397.84 432.5 401.84 432.5 405.84 432.5 405.84 407 405.84 381.5 401.84 381.5 397.84 381.5"></polygon>
  <polygon points="517.84 424.5 517.84 392 517.84 359.5 513.34 359.5 508.84 359.5 508.84 396 508.84 432.5 530.84 432.5 552.84 432.5 552.84 428.5 552.84 424.5 535.34 424.5 517.84 424.5"></polygon>
  <path d="M310.84,381.5v17c0,18.7-.7,22.1-5.5,25.8-3.7,2.9-11.2,3-14.8,.2-3.9-3.1-4.7-7.7-4.7-26.2v-16.8h-8v18.8c0,10.3,.5,20.3,1,22.3,1.2,4.3,5.5,8.6,10.6,10.5,4.5,1.6,12.7,1.1,16-1.1,1.2-.7,2.9-2.1,3.8-3,1.5-1.5,1.6-1.5,1.6,.9s.4,2.6,4,2.6h4v-51h-8Z"></path>
  <path d="M157.34,134.3c2.8-.6,8.6-2.9,13-5.2,17.3-8.9,29.2-26,31.1-45.1l.7-6.5h-59.3v59.2l4.8-.6c2.6-.4,7-1.2,9.7-1.8Z"></path>
  <path d="M172.24,299.5h29.6V133.5h-3.5c-6.2,0-13.9,2.1-22.5,6.2-14.2,6.8-25.4,19.8-30.6,35.8-1.7,5-1.9,10.8-2.2,64.8l-.3,59.2h29.5Z"></path>
  <path d="M211.24,391c-5.5-2.1-11.3-4.9-13.1-6.2-6-4.4-5.3-12.4,1.6-17,5.7-3.9,15.9-2.6,20.5,2.5l1.8,2.1,3.5-2.6,3.4-2.6-2.3-2.4c-10.2-11-32.9-8.8-39.2,3.6-6.1,12.1-.3,22.4,16,28.6,15.1,5.7,19.4,9.4,19.4,16.8,0,6.1-8.1,12.7-15.5,12.7-5.5,0-13.5-4-16.8-8.3l-2.8-3.7-3.4,2.3c-1.9,1.2-3.5,2.5-3.5,2.8,0,1.6,7.7,9.2,11.1,10.9,8.6,4.4,19.6,4.8,27.6,.9,8.9-4.3,13.8-14.6,11.3-23.9-1.9-7-7.8-12-19.6-16.5Z"></path>
  <path d="M263.74,426.5c-3.2,0-6.9-1.5-8.1-3.4-.4-.6-.8-8.9-.8-18.3v-17.3h5.5c5.4,0,5.5,0,5.5-3s-.1-3-5.5-3h-5.5v-15h-7.9l-.3,7.3-.3,7.2-4.2,.3c-4,.3-4.3,.5-4.3,3.2s.3,2.9,4.3,3.2l4.2,.3,.5,19c.5,19.9,1,22.2,5.2,24.2,3.7,1.9,5,2.1,10.1,2.2l4.7,.1v-3.5c0-3.2-.2-3.5-3.1-3.5Z"></path>
  <polygon points="334.84 230.5 334.84 207 334.84 183.5 285.84 183.5 236.84 183.5 236.84 207 236.84 230.5 285.84 230.5 334.84 230.5"></polygon>
  <polygon points="721.84 359.5 721.84 396 721.84 432.5 726.34 432.5 730.84 432.5 730.84 396 730.84 359.5 726.34 359.5 721.84 359.5"></polygon>
  <path d="M818.54,139.5h-24.4l-1.2,4.3c-2.5,8.6-24.2,79.3-25,81.1-.7,1.9-3.5-5-25.4-64.9l-7.3-20h-31.7l-2.8,7.5c-1.5,4.1-8.4,23-15.3,41.8-6.9,18.9-13,35-13.4,35.8-.5,.9-5.5-13.7-13.7-40.3-7-23-13.2-42.6-13.7-43.5-.8-1.6-3.1-1.8-25.9-1.8h-25.1l.6,2.8c.4,1.5,6.8,21.2,14.2,43.7,11.2,34,35.4,107.6,36.9,112.3,.4,1,5,1.2,20.6,1l20.1-.3,15.1-40.5c8.3-22.3,15.2-40.7,15.4-41,.8-.9,2.2,2.6,16.9,42.1l14.9,39.9h42.4l5.6-17.2c3.1-9.5,14.8-45.2,26-79.4,11.3-34.1,20.5-62.3,20.5-62.7s-11-.7-24.3-.7Z"></path>
  <path d="M905.84,12.5c-8.5-4.3-19.8-8-32.1-10.7-8-1.7-25.7-1.8-385.4-1.8S110.94,.1,102.34,1.8c-26.8,5.5-49.8,16.6-66.5,32.3C18.64,50.2,8.24,69.4,2.54,95.5,.54,104.7,.44,108.2,.14,198.3c-.4,103.2-.3,105.2,5.8,126.9,10.9,38.5,35.4,66.6,69.4,79.6,16.3,6.3,29.3,8.4,52.8,8.6l15.7,.1v-29.7l-18.2-.6c-20.3-.5-32.1-2.9-44.4-8.6-26.9-12.6-44-38.1-49.9-74.1-1.3-8-1.5-22.9-1.5-94.8,0-53.9,.4-88.8,1.1-94.9,2.3-20.8,9.4-37.3,21.7-50.4,12.6-13.4,28.5-22.2,50.1-27.7l10.6-2.7H863.34l8.8,2.3c27.5,7.3,44,20.3,56.2,44.5,5.2,10.3,8.8,21.5,11,34.1,2.2,12.8,2.2,181.1,0,195.6-5.5,36-25.8,59.4-61.7,70.9-12.7,4-25.8,6.1-38.5,6.1h-10.3v30h11.9c22.1,0,46.8-5.8,66.1-15.5,12.5-6.2,19.9-11.4,29.8-20.9,17.8-17.1,28.5-39,32.6-66.9,2.3-15.3,2.4-187.1,.1-202.2-6.7-44.3-29.2-78.1-63.5-95.5Z"></path>
  <path d="M660.34,435.2c-1.9-8.9-7.3-11.6-23.5-11.7-12.3,0-16.3-1.1-16.8-4.6-.2-1.1,.6-2.8,1.7-3.8,1.8-1.7,2.5-1.7,6.6-.6,10.2,2.9,20.9-1.2,24.6-9.3,2.2-5,2.3-8.8,.4-14.2-1.6-4.4-1.1-5.1,3.8-6.2,2.3-.5,2.7-1.1,2.7-3.9,0-3-.3-3.4-2.6-3.4-2.9,0-6.4,1.7-8,3.8-.9,1.2-1.7,1.2-5.7-.2-6.2-2.1-12.2-2-17.2,.3-4.8,2.2-6.9,4.4-9,9.4-2,4.8-1.9,9.3,.5,14.5l1.9,4.2-3.5,3.3c-4.4,4-5.1,9.3-1.6,13l2.2,2.3-3,2.9c-7.4,7.1-3.4,18.1,7.7,21.1,6,1.6,18.6,1.7,25.3,.3,9.1-1.9,15.1-9.6,13.5-17.2Zm-30.9-47.6c6.8-3.1,14.2-.2,16.4,6.4,2.5,7.6-2.5,14.6-10.3,14.4-2.3,0-5.1-.5-6.3-1-2.7-1.4-5.4-6-5.4-9.4,0-4,2.7-9.1,5.6-10.4Zm17.2,57.3c-4.2,1.7-18.7,2.1-22.4,.6-2.7-1.1-6.4-5.7-6.4-8,0-1,.9-2.9,2.1-4.4,2-2.5,2.3-2.6,14-2.6,13.3,0,17.2,1.2,18.3,5.4,.9,3.8-1.2,7.3-5.6,9Z"></path>
  <path d="M377.34,359.5h-4.5v28.2l-3.4-3c-4.6-4-9.7-5.6-16.1-4.9-8.6,.9-15.2,5.5-19.1,13.4-2.7,5.5-2.7,22.2,0,27.7,5.2,10.4,16.8,15.6,27.9,12.5,2.1-.5,5.3-2.3,7.1-4,1.9-1.6,3.6-2.9,4-2.9,.3,0,.6,1.4,.6,3,0,2.8,.2,3,4,3h4v-73h-4.5Zm-4.7,49c-.2,6.5-.7,8.2-3.1,11.3-1.5,2-4.1,4.4-5.7,5.2-4.1,2.1-11.8,1.9-15.6-.4-1.9-1.2-4.2-4.1-5.9-7.6-2.4-4.7-2.7-6.4-2.2-11.4,.5-6.5,3.5-13.2,6.9-15.6,6.4-4.4,15.2-3.9,20,1.2,4.8,5.2,6,8.9,5.6,17.3Z"></path>
  <path d="M466.54,392.2c-6.2-10.5-18-14.9-29.9-11.3-6.4,1.9-11,5.7-14.4,11.8-2.6,4.8-2.9,6.2-2.9,14.3,0,7.4,.4,9.8,2.3,13.2,3.6,6.8,8.6,10.9,16.2,13.4,4.3,1.4,13.9,.2,18.8-2.3,5.5-2.8,10.7-9.2,12.3-15.1,1.9-7,.7-18.7-2.4-24Zm-7.9,26.4c-1.7,2.8-4.1,5.3-6.2,6.3-4.7,2.2-12.3,2.1-16.2-.3-13.8-8.4-11-33.2,4.1-37,7.7-1.9,14.5,1,18.5,8.1,3.7,6.3,3.5,16.5-.2,22.9Z"></path>
  <path d="M597.34,417.9l-3.5,3.7c-5.7,6-14.6,7-21.4,2.6-2.6-1.7-6-8.3-7.1-13.4l-.7-3.3h39.5l-.5-6.3c-.6-7.5-3.6-13.7-8-17-13.6-10-32.6-3.5-37.3,12.7-3.4,11.6,.3,26.3,8,32.2,6.3,4.8,15.1,6.4,23,4.3,4.7-1.3,9.5-4.7,12.4-8.8l2.1-2.9-3.2-1.9-3.3-1.9Zm-29.4-23.1c5.1-10.6,19.9-11,25.6-.8,4.2,7.5,4.3,7.5-12.7,7.5-10.9,0-15-.3-15-1.2,0-.6,.9-3.1,2.1-5.5Z"></path>
  <path d="M785.84,419.5c-2.8-1.1-3.1-1-6.2,2.3-5.7,6-14.8,6.9-21.7,2.1-2.6-1.9-7.1-10.7-7.1-14.1v-2.3h39.3l-.5-5.7c-1.3-13.4-10-22.1-22.3-22.3-13.8-.1-23.3,9.5-24.3,24.7-.9,14.6,4.7,24.5,16.6,28.9,5,1.9,14.7,1.2,19.9-1.5,4-2,9.3-7.6,9.3-9.8,0-.6-1.3-1.6-3-2.3Zm-26-31.2c9.1-4.6,19.9,.6,21.2,10.2l.3,2.5-14.7,.3c-13.6,.2-14.8,.1-14.8-1.5,0-3.4,4.5-9.8,8-11.5Z"></path>
  <path d="M706.64,411.8c-.4-23.3-.9-25.3-7.3-29.3-4.4-2.7-13.4-3.7-19.4-2-2.7,.7-6.1,2.8-8.9,5.4l-4.5,4.2,3.4,2.2q3.3,2,4.7,.1c1.8-2.5,8.4-5.9,11.7-5.9,3.8,0,9.2,2.5,10.5,5,.6,1.1,1,3.7,.8,5.8l-.3,3.7-9.4,1.7c-16.3,3-22.6,7.7-22.6,16.8,0,5.7,2.3,9.3,7.5,12.1,4.3,2.3,14.8,2.6,18.9,.5,1.5-.8,3.3-2.2,4-3,1.9-2.3,3.1-2,3.1,.9,0,2.3,.4,2.5,4.1,2.5h4.1l-.4-20.7Zm-11.4,10.6c-1.4,1.7-4.2,3.5-6.2,4.1-4.6,1.2-4.8,1.2-9.6-.5s-5.7-3-5.4-8c.3-3.2,.9-4.2,3.4-5.7,2.4-1.4,16.3-4.8,19.7-4.8,.4,0,.7,2.7,.7,5.9,0,4.9-.4,6.5-2.6,9Z"></path>
  <path d="M574.84,164.8c-10.1-20.5-37.3-32.1-70-29.8-20,1.3-34.9,6.7-48.5,17.5-8.4,6.7-17.1,17.6-15.6,19.4,.5,.6,8.1,6,16.9,12l16,10.8,6.4-6.4c9.8-10,20.4-13.9,32.6-11.9,12.9,2.1,19.2,8.6,19.2,19.8,0,3.9,2.2,3.2-24.8,7.3-23.7,3.7-33.3,6.3-45.8,12.5-18.1,9.1-26.4,21.9-26.4,41.1,0,32,30.8,52.4,67.8,44.8,12.2-2.5,23.1-9.4,28.4-17.9l1.8-3v18.5h48v-57.2c0-63-.3-65.7-6-77.5Zm-43.2,76.3c-.3,8.2-.8,10.7-2.8,14.4-2.9,5.1-8.6,9.4-14.7,10.9-6.6,1.7-17.2,1.3-21.9-.8-6.1-2.8-8.4-6.3-8.4-12.7,0-4.5,.5-5.9,3-8.7,4.2-4.8,10.1-6.8,31-10.2,5.2-.9,10.6-1.9,11.9-2.2l2.3-.6-.4,9.9Z"></path>
</svg>
